<?xml version="1.0" encoding="utf-8" standalone="no"?>
<!DOCTYPE svg PUBLIC "-//W3C//DTD SVG 1.1//EN"
  "http://www.w3.org/Graphics/SVG/1.1/DTD/svg11.dtd">
<svg xmlns:xlink="http://www.w3.org/1999/xlink" width="510.46125pt" height="323.670993pt" viewBox="0 0 510.46125 323.670993" xmlns="http://www.w3.org/2000/svg" version="1.1">
 <metadata>
  <rdf:RDF xmlns:dc="http://purl.org/dc/elements/1.1/" xmlns:cc="http://creativecommons.org/ns#" xmlns:rdf="http://www.w3.org/1999/02/22-rdf-syntax-ns#">
   <cc:Work>
    <dc:type rdf:resource="http://purl.org/dc/dcmitype/StillImage"/>
    <dc:date>2024-05-22T17:34:11.862607</dc:date>
    <dc:format>image/svg+xml</dc:format>
    <dc:creator>
     <cc:Agent>
      <dc:title>Matplotlib v3.5.2, https://matplotlib.org/</dc:title>
     </cc:Agent>
    </dc:creator>
   </cc:Work>
  </rdf:RDF>
 </metadata>
 <defs>
  <style type="text/css">*{stroke-linejoin: round; stroke-linecap: butt}</style>
 </defs>
 <g id="figure_1">
  <g id="patch_1">
   <path d="M 0 323.670993 
L 510.46125 323.670993 
L 510.46125 0 
L 0 0 
L 0 323.670993 
z
" style="fill: none"/>
  </g>
  <g id="axes_1">
   <g id="patch_2">
    <path d="M 56.86125 88.773529 
L 503.26125 88.773529 
L 503.26125 7.244118 
L 56.86125 7.244118 
L 56.86125 88.773529 
z
" style="fill: none"/>
   </g>
   <g id="PathCollection_1">
    <defs>
     <path id="me4e8b36732" d="M 0 0.935414 
C 0.248075 0.935414 0.486022 0.836853 0.661438 0.661438 
C 0.836853 0.486022 0.935414 0.248075 0.935414 0 
C 0.935414 -0.248075 0.836853 -0.486022 0.661438 -0.661438 
C 0.486022 -0.836853 0.248075 -0.935414 0 -0.935414 
C -0.248075 -0.935414 -0.486022 -0.836853 -0.661438 -0.661438 
C -0.836853 -0.486022 -0.935414 -0.248075 -0.935414 0 
C -0.935414 0.248075 -0.836853 0.486022 -0.661438 0.661438 
C -0.486022 0.836853 -0.248075 0.935414 0 0.935414 
z
" style="stroke: #ffffff; stroke-width: 0.149666"/>
    </defs>
    <g clip-path="url(#pf3c0f79e7e)">
     <use xlink:href="#me4e8b36732" x="77.152159" y="10.95" style="fill: #0173b2; stroke: #ffffff; stroke-width: 0.149666"/>
     <use xlink:href="#me4e8b36732" x="85.606705" y="20.205851" style="fill: #0173b2; stroke: #ffffff; stroke-width: 0.149666"/>
     <use xlink:href="#me4e8b36732" x="94.06125" y="10.95" style="fill: #0173b2; stroke: #ffffff; stroke-width: 0.149666"/>
     <use xlink:href="#me4e8b36732" x="102.515795" y="10.95" style="fill: #0173b2; stroke: #ffffff; stroke-width: 0.149666"/>
     <use xlink:href="#me4e8b36732" x="110.970341" y="14.409098" style="fill: #0173b2; stroke: #ffffff; stroke-width: 0.149666"/>
     <use xlink:href="#me4e8b36732" x="119.424886" y="11.934952" style="fill: #0173b2; stroke: #ffffff; stroke-width: 0.149666"/>
     <use xlink:href="#me4e8b36732" x="127.879432" y="12.656255" style="fill: #0173b2; stroke: #ffffff; stroke-width: 0.149666"/>
     <use xlink:href="#me4e8b36732" x="136.333977" y="12.471795" style="fill: #0173b2; stroke: #ffffff; stroke-width: 0.149666"/>
     <use xlink:href="#me4e8b36732" x="144.788523" y="15.053303" style="fill: #0173b2; stroke: #ffffff; stroke-width: 0.149666"/>
     <use xlink:href="#me4e8b36732" x="153.243068" y="13.461811" style="fill: #0173b2; stroke: #ffffff; stroke-width: 0.149666"/>
     <use xlink:href="#me4e8b36732" x="161.697614" y="13.78898" style="fill: #0173b2; stroke: #ffffff; stroke-width: 0.149666"/>
     <use xlink:href="#me4e8b36732" x="170.152159" y="18.770337" style="fill: #0173b2; stroke: #ffffff; stroke-width: 0.149666"/>
     <use xlink:href="#me4e8b36732" x="178.606705" y="12.412505" style="fill: #0173b2; stroke: #ffffff; stroke-width: 0.149666"/>
     <use xlink:href="#me4e8b36732" x="187.06125" y="12.768781" style="fill: #0173b2; stroke: #ffffff; stroke-width: 0.149666"/>
     <use xlink:href="#me4e8b36732" x="195.515795" y="13.506156" style="fill: #0173b2; stroke: #ffffff; stroke-width: 0.149666"/>
     <use xlink:href="#me4e8b36732" x="203.970341" y="13.354545" style="fill: #0173b2; stroke: #ffffff; stroke-width: 0.149666"/>
     <use xlink:href="#me4e8b36732" x="212.424886" y="14.733187" style="fill: #0173b2; stroke: #ffffff; stroke-width: 0.149666"/>
     <use xlink:href="#me4e8b36732" x="220.879432" y="11.665002" style="fill: #0173b2; stroke: #ffffff; stroke-width: 0.149666"/>
     <use xlink:href="#me4e8b36732" x="229.333977" y="12.651101" style="fill: #0173b2; stroke: #ffffff; stroke-width: 0.149666"/>
     <use xlink:href="#me4e8b36732" x="237.788523" y="14.526732" style="fill: #0173b2; stroke: #ffffff; stroke-width: 0.149666"/>
     <use xlink:href="#me4e8b36732" x="246.243068" y="14.648963" style="fill: #0173b2; stroke: #ffffff; stroke-width: 0.149666"/>
     <use xlink:href="#me4e8b36732" x="254.697614" y="12.723431" style="fill: #0173b2; stroke: #ffffff; stroke-width: 0.149666"/>
     <use xlink:href="#me4e8b36732" x="263.152159" y="14.379833" style="fill: #0173b2; stroke: #ffffff; stroke-width: 0.149666"/>
     <use xlink:href="#me4e8b36732" x="271.606705" y="14.752042" style="fill: #0173b2; stroke: #ffffff; stroke-width: 0.149666"/>
     <use xlink:href="#me4e8b36732" x="280.06125" y="14.593868" style="fill: #0173b2; stroke: #ffffff; stroke-width: 0.149666"/>
     <use xlink:href="#me4e8b36732" x="288.515795" y="13.966416" style="fill: #0173b2; stroke: #ffffff; stroke-width: 0.149666"/>
     <use xlink:href="#me4e8b36732" x="296.970341" y="13.610146" style="fill: #0173b2; stroke: #ffffff; stroke-width: 0.149666"/>
     <use xlink:href="#me4e8b36732" x="305.424886" y="11.417597" style="fill: #0173b2; stroke: #ffffff; stroke-width: 0.149666"/>
     <use xlink:href="#me4e8b36732" x="313.879432" y="13.206771" style="fill: #0173b2; stroke: #ffffff; stroke-width: 0.149666"/>
     <use xlink:href="#me4e8b36732" x="322.333977" y="13.575688" style="fill: #0173b2; stroke: #ffffff; stroke-width: 0.149666"/>
     <use xlink:href="#me4e8b36732" x="330.788523" y="12.650886" style="fill: #0173b2; stroke: #ffffff; stroke-width: 0.149666"/>
     <use xlink:href="#me4e8b36732" x="339.243068" y="11.771992" style="fill: #0173b2; stroke: #ffffff; stroke-width: 0.149666"/>
     <use xlink:href="#me4e8b36732" x="347.697614" y="13.167318" style="fill: #0173b2; stroke: #ffffff; stroke-width: 0.149666"/>
     <use xlink:href="#me4e8b36732" x="356.152159" y="14.434868" style="fill: #0173b2; stroke: #ffffff; stroke-width: 0.149666"/>
     <use xlink:href="#me4e8b36732" x="364.606705" y="14.726843" style="fill: #0173b2; stroke: #ffffff; stroke-width: 0.149666"/>
     <use xlink:href="#me4e8b36732" x="373.06125" y="12.601574" style="fill: #0173b2; stroke: #ffffff; stroke-width: 0.149666"/>
     <use xlink:href="#me4e8b36732" x="381.515795" y="12.552819" style="fill: #0173b2; stroke: #ffffff; stroke-width: 0.149666"/>
     <use xlink:href="#me4e8b36732" x="389.970341" y="13.031141" style="fill: #0173b2; stroke: #ffffff; stroke-width: 0.149666"/>
     <use xlink:href="#me4e8b36732" x="398.424886" y="12.640038" style="fill: #0173b2; stroke: #ffffff; stroke-width: 0.149666"/>
     <use xlink:href="#me4e8b36732" x="406.879432" y="13.913496" style="fill: #0173b2; stroke: #ffffff; stroke-width: 0.149666"/>
     <use xlink:href="#me4e8b36732" x="415.333977" y="15.624293" style="fill: #0173b2; stroke: #ffffff; stroke-width: 0.149666"/>
     <use xlink:href="#me4e8b36732" x="423.788523" y="12.995599" style="fill: #0173b2; stroke: #ffffff; stroke-width: 0.149666"/>
     <use xlink:href="#me4e8b36732" x="432.243068" y="13.561758" style="fill: #0173b2; stroke: #ffffff; stroke-width: 0.149666"/>
     <use xlink:href="#me4e8b36732" x="440.697614" y="13.811762" style="fill: #0173b2; stroke: #ffffff; stroke-width: 0.149666"/>
     <use xlink:href="#me4e8b36732" x="449.152159" y="12.129192" style="fill: #0173b2; stroke: #ffffff; stroke-width: 0.149666"/>
     <use xlink:href="#me4e8b36732" x="457.606705" y="12.391291" style="fill: #0173b2; stroke: #ffffff; stroke-width: 0.149666"/>
     <use xlink:href="#me4e8b36732" x="466.06125" y="14.61297" style="fill: #0173b2; stroke: #ffffff; stroke-width: 0.149666"/>
     <use xlink:href="#me4e8b36732" x="474.515795" y="13.846942" style="fill: #0173b2; stroke: #ffffff; stroke-width: 0.149666"/>
     <use xlink:href="#me4e8b36732" x="482.970341" y="11.085515" style="fill: #0173b2; stroke: #ffffff; stroke-width: 0.149666"/>
    </g>
   </g>
   <g id="matplotlib.axis_1">
    <g id="xtick_1">
     <g id="line2d_1">
      <defs>
       <path id="mf91f9554c1" d="M 0 0 
L 0 3.5 
" style="stroke: #000000; stroke-width: 0.8"/>
      </defs>
      <g>
       <use xlink:href="#mf91f9554c1" x="60.243068" y="88.773529" style="stroke: #000000; stroke-width: 0.8"/>
      </g>
     </g>
    </g>
    <g id="xtick_2">
     <g id="line2d_2">
      <g>
       <use xlink:href="#mf91f9554c1" x="144.788523" y="88.773529" style="stroke: #000000; stroke-width: 0.8"/>
      </g>
     </g>
    </g>
    <g id="xtick_3">
     <g id="line2d_3">
      <g>
       <use xlink:href="#mf91f9554c1" x="229.333977" y="88.773529" style="stroke: #000000; stroke-width: 0.8"/>
      </g>
     </g>
    </g>
    <g id="xtick_4">
     <g id="line2d_4">
      <g>
       <use xlink:href="#mf91f9554c1" x="313.879432" y="88.773529" style="stroke: #000000; stroke-width: 0.8"/>
      </g>
     </g>
    </g>
    <g id="xtick_5">
     <g id="line2d_5">
      <g>
       <use xlink:href="#mf91f9554c1" x="398.424886" y="88.773529" style="stroke: #000000; stroke-width: 0.8"/>
      </g>
     </g>
    </g>
    <g id="xtick_6">
     <g id="line2d_6">
      <g>
       <use xlink:href="#mf91f9554c1" x="482.970341" y="88.773529" style="stroke: #000000; stroke-width: 0.8"/>
      </g>
     </g>
    </g>
   </g>
   <g id="matplotlib.axis_2">
    <g id="ytick_1">
     <g id="line2d_7">
      <defs>
       <path id="mf258e5bd87" d="M 0 0 
L -3.5 0 
" style="stroke: #000000; stroke-width: 0.8"/>
      </defs>
      <g>
       <use xlink:href="#mf258e5bd87" x="56.86125" y="78.517715" style="stroke: #000000; stroke-width: 0.8"/>
      </g>
     </g>
     <g id="text_1">
      <!-- 0.8 -->
      <g transform="translate(35.99875 82.267715)scale(0.1 -0.1)">
       <defs>
        <path id="Roboto-Regular-30" d="M 3231 1941 
Q 3231 925 2884 431 
Q 2538 -63 1800 -63 
Q 1072 -63 722 420 
Q 372 903 359 1863 
L 359 2634 
Q 359 3638 706 4125 
Q 1053 4613 1794 4613 
Q 2528 4613 2875 4142 
Q 3222 3672 3231 2691 
L 3231 1941 
z
M 2653 2731 
Q 2653 3466 2447 3802 
Q 2241 4138 1794 4138 
Q 1350 4138 1147 3803 
Q 944 3469 938 2775 
L 938 1850 
Q 938 1113 1152 761 
Q 1366 409 1800 409 
Q 2228 409 2436 740 
Q 2644 1072 2653 1784 
L 2653 2731 
z
" transform="scale(0.015625)"/>
        <path id="Roboto-Regular-2e" d="M 450 303 
Q 450 453 539 553 
Q 628 653 806 653 
Q 984 653 1076 553 
Q 1169 453 1169 303 
Q 1169 159 1076 62 
Q 984 -34 806 -34 
Q 628 -34 539 62 
Q 450 159 450 303 
z
" transform="scale(0.015625)"/>
        <path id="Roboto-Regular-38" d="M 3138 3363 
Q 3138 3022 2958 2756 
Q 2778 2491 2472 2341 
Q 2828 2188 3036 1894 
Q 3244 1600 3244 1228 
Q 3244 638 2845 287 
Q 2447 -63 1797 -63 
Q 1141 -63 745 289 
Q 350 641 350 1228 
Q 350 1597 551 1894 
Q 753 2191 1109 2344 
Q 806 2494 631 2759 
Q 456 3025 456 3363 
Q 456 3938 825 4275 
Q 1194 4613 1797 4613 
Q 2397 4613 2767 4275 
Q 3138 3938 3138 3363 
z
M 2666 1241 
Q 2666 1622 2423 1862 
Q 2181 2103 1790 2103 
Q 1400 2103 1164 1865 
Q 928 1628 928 1240 
Q 928 853 1158 631 
Q 1388 409 1797 409 
Q 2203 409 2434 632 
Q 2666 856 2666 1241 
z
M 1797 4138 
Q 1456 4138 1245 3927 
Q 1034 3716 1034 3353 
Q 1034 3006 1242 2792 
Q 1450 2578 1797 2578 
Q 2144 2578 2351 2792 
Q 2559 3006 2559 3353 
Q 2559 3700 2343 3919 
Q 2128 4138 1797 4138 
z
" transform="scale(0.015625)"/>
       </defs>
       <use xlink:href="#Roboto-Regular-30"/>
       <use xlink:href="#Roboto-Regular-2e" x="56.152344"/>
       <use xlink:href="#Roboto-Regular-38" x="82.470703"/>
      </g>
     </g>
    </g>
    <g id="ytick_2">
     <g id="line2d_8">
      <g>
       <use xlink:href="#mf258e5bd87" x="56.86125" y="44.733858" style="stroke: #000000; stroke-width: 0.8"/>
      </g>
     </g>
     <g id="text_2">
      <!-- 0.9 -->
      <g transform="translate(35.99875 48.483858)scale(0.1 -0.1)">
       <defs>
        <path id="Roboto-Regular-39" d="M 2594 2000 
Q 2413 1784 2161 1653 
Q 1909 1522 1609 1522 
Q 1216 1522 923 1715 
Q 631 1909 472 2261 
Q 313 2613 313 3038 
Q 313 3494 486 3859 
Q 659 4225 978 4419 
Q 1297 4613 1722 4613 
Q 2397 4613 2786 4108 
Q 3175 3603 3175 2731 
L 3175 2563 
Q 3175 1234 2650 623 
Q 2125 13 1066 -3 
L 953 -3 
L 953 484 
L 1075 484 
Q 1791 497 2175 858 
Q 2559 1219 2594 2000 
z
M 1703 2000 
Q 1994 2000 2239 2178 
Q 2484 2356 2597 2619 
L 2597 2850 
Q 2597 3419 2350 3775 
Q 2103 4131 1725 4131 
Q 1344 4131 1112 3839 
Q 881 3547 881 3069 
Q 881 2603 1104 2301 
Q 1328 2000 1703 2000 
z
" transform="scale(0.015625)"/>
       </defs>
       <use xlink:href="#Roboto-Regular-30"/>
       <use xlink:href="#Roboto-Regular-2e" x="56.152344"/>
       <use xlink:href="#Roboto-Regular-39" x="82.470703"/>
      </g>
     </g>
    </g>
    <g id="ytick_3">
     <g id="line2d_9">
      <g>
       <use xlink:href="#mf258e5bd87" x="56.86125" y="10.95" style="stroke: #000000; stroke-width: 0.8"/>
      </g>
     </g>
     <g id="text_3">
      <!-- 1.0 -->
      <g transform="translate(35.99875 14.7)scale(0.1 -0.1)">
       <defs>
        <path id="Roboto-Regular-31" d="M 2278 0 
L 1697 0 
L 1697 3853 
L 531 3425 
L 531 3950 
L 2188 4572 
L 2278 4572 
L 2278 0 
z
" transform="scale(0.015625)"/>
       </defs>
       <use xlink:href="#Roboto-Regular-31"/>
       <use xlink:href="#Roboto-Regular-2e" x="56.152344"/>
       <use xlink:href="#Roboto-Regular-30" x="82.470703"/>
      </g>
     </g>
    </g>
    <g id="text_4">
     <!-- R9/DNA -->
     <g transform="translate(16.2 69.672574)rotate(-90)scale(0.12 -0.12)">
      <defs>
       <path id="Roboto-Regular-52" d="M 2197 1841 
L 1128 1841 
L 1128 0 
L 525 0 
L 525 4550 
L 2031 4550 
Q 2800 4550 3214 4200 
Q 3628 3850 3628 3181 
Q 3628 2756 3398 2440 
Q 3169 2125 2759 1969 
L 3828 38 
L 3828 0 
L 3184 0 
L 2197 1841 
z
M 1128 2331 
L 2050 2331 
Q 2497 2331 2761 2562 
Q 3025 2794 3025 3181 
Q 3025 3603 2773 3828 
Q 2522 4053 2047 4056 
L 1128 4056 
L 1128 2331 
z
" transform="scale(0.015625)"/>
       <path id="Roboto-Regular-2f" d="M 553 -391 
L 56 -391 
L 1956 4550 
L 2450 4550 
L 553 -391 
z
" transform="scale(0.015625)"/>
       <path id="Roboto-Regular-44" d="M 528 0 
L 528 4550 
L 1813 4550 
Q 2406 4550 2862 4287 
Q 3319 4025 3567 3540 
Q 3816 3056 3819 2428 
L 3819 2138 
Q 3819 1494 3570 1009 
Q 3322 525 2861 265 
Q 2400 6 1788 0 
L 528 0 
z
M 1128 4056 
L 1128 491 
L 1759 491 
Q 2453 491 2839 922 
Q 3225 1353 3225 2150 
L 3225 2416 
Q 3225 3191 2861 3620 
Q 2497 4050 1828 4056 
L 1128 4056 
z
" transform="scale(0.015625)"/>
       <path id="Roboto-Regular-4e" d="M 4025 0 
L 3422 0 
L 1131 3506 
L 1131 0 
L 528 0 
L 528 4550 
L 1131 4550 
L 3428 1028 
L 3428 4550 
L 4025 4550 
L 4025 0 
z
" transform="scale(0.015625)"/>
       <path id="Roboto-Regular-41" d="M 3041 1188 
L 1134 1188 
L 706 0 
L 88 0 
L 1825 4550 
L 2350 4550 
L 4091 0 
L 3475 0 
L 3041 1188 
z
M 1316 1681 
L 2863 1681 
L 2088 3809 
L 1316 1681 
z
" transform="scale(0.015625)"/>
      </defs>
      <use xlink:href="#Roboto-Regular-52"/>
      <use xlink:href="#Roboto-Regular-39" x="61.572266"/>
      <use xlink:href="#Roboto-Regular-2f" x="117.724609"/>
      <use xlink:href="#Roboto-Regular-44" x="158.935547"/>
      <use xlink:href="#Roboto-Regular-4e" x="224.511719"/>
      <use xlink:href="#Roboto-Regular-41" x="295.800781"/>
     </g>
     <!-- Identity -->
     <g transform="translate(29.4375 67.729136)rotate(-90)scale(0.12 -0.12)">
      <defs>
       <path id="Roboto-Regular-49" d="M 1172 0 
L 572 0 
L 572 4550 
L 1172 4550 
L 1172 0 
z
" transform="scale(0.015625)"/>
       <path id="Roboto-Regular-64" d="M 297 1719 
Q 297 2497 665 2970 
Q 1034 3444 1631 3444 
Q 2225 3444 2572 3038 
L 2572 4800 
L 3150 4800 
L 3150 0 
L 2619 0 
L 2591 363 
Q 2244 -63 1625 -63 
Q 1038 -63 667 418 
Q 297 900 297 1675 
L 297 1719 
z
M 875 1653 
Q 875 1078 1112 753 
Q 1350 428 1769 428 
Q 2319 428 2572 922 
L 2572 2475 
Q 2313 2953 1775 2953 
Q 1350 2953 1112 2625 
Q 875 2297 875 1653 
z
" transform="scale(0.015625)"/>
       <path id="Roboto-Regular-65" d="M 1841 -63 
Q 1153 -63 722 389 
Q 291 841 291 1597 
L 291 1703 
Q 291 2206 483 2601 
Q 675 2997 1020 3220 
Q 1366 3444 1769 3444 
Q 2428 3444 2793 3009 
Q 3159 2575 3159 1766 
L 3159 1525 
L 869 1525 
Q 881 1025 1161 717 
Q 1441 409 1872 409 
Q 2178 409 2390 534 
Q 2603 659 2763 866 
L 3116 591 
Q 2691 -63 1841 -63 
z
M 1769 2969 
Q 1419 2969 1181 2714 
Q 944 2459 888 2000 
L 2581 2000 
L 2581 2044 
Q 2556 2484 2343 2726 
Q 2131 2969 1769 2969 
z
" transform="scale(0.015625)"/>
       <path id="Roboto-Regular-6e" d="M 984 3381 
L 1003 2956 
Q 1391 3444 2016 3444 
Q 3088 3444 3097 2234 
L 3097 0 
L 2519 0 
L 2519 2238 
Q 2516 2603 2352 2778 
Q 2188 2953 1841 2953 
Q 1559 2953 1346 2803 
Q 1134 2653 1016 2409 
L 1016 0 
L 438 0 
L 438 3381 
L 984 3381 
z
" transform="scale(0.015625)"/>
       <path id="Roboto-Regular-74" d="M 1222 4200 
L 1222 3381 
L 1853 3381 
L 1853 2934 
L 1222 2934 
L 1222 838 
Q 1222 634 1306 532 
Q 1391 431 1594 431 
Q 1694 431 1869 469 
L 1869 0 
Q 1641 -63 1425 -63 
Q 1038 -63 841 171 
Q 644 406 644 838 
L 644 2934 
L 28 2934 
L 28 3381 
L 644 3381 
L 644 4200 
L 1222 4200 
z
" transform="scale(0.015625)"/>
       <path id="Roboto-Regular-69" d="M 1066 0 
L 488 0 
L 488 3381 
L 1066 3381 
L 1066 0 
z
M 441 4278 
Q 441 4419 527 4516 
Q 613 4613 781 4613 
Q 950 4613 1037 4516 
Q 1125 4419 1125 4278 
Q 1125 4138 1037 4044 
Q 950 3950 781 3950 
Q 613 3950 527 4044 
Q 441 4138 441 4278 
z
" transform="scale(0.015625)"/>
       <path id="Roboto-Regular-79" d="M 1544 847 
L 2331 3381 
L 2950 3381 
L 1591 -522 
Q 1275 -1366 588 -1366 
L 478 -1356 
L 263 -1316 
L 263 -847 
L 419 -859 
Q 713 -859 877 -740 
Q 1041 -622 1147 -306 
L 1275 38 
L 69 3381 
L 700 3381 
L 1544 847 
z
" transform="scale(0.015625)"/>
      </defs>
      <use xlink:href="#Roboto-Regular-49"/>
      <use xlink:href="#Roboto-Regular-64" x="27.197266"/>
      <use xlink:href="#Roboto-Regular-65" x="83.59375"/>
      <use xlink:href="#Roboto-Regular-6e" x="136.572266"/>
      <use xlink:href="#Roboto-Regular-74" x="191.748047"/>
      <use xlink:href="#Roboto-Regular-69" x="224.414062"/>
      <use xlink:href="#Roboto-Regular-74" x="248.681641"/>
      <use xlink:href="#Roboto-Regular-79" x="281.347656"/>
     </g>
    </g>
   </g>
   <g id="patch_3">
    <path d="M 56.86125 88.773529 
L 56.86125 7.244118 
" style="fill: none; stroke: #000000; stroke-width: 0.8; stroke-linejoin: miter; stroke-linecap: square"/>
   </g>
   <g id="patch_4">
    <path d="M 56.86125 88.773529 
L 503.26125 88.773529 
" style="fill: none; stroke: #000000; stroke-width: 0.8; stroke-linejoin: miter; stroke-linecap: square"/>
   </g>
  </g>
  <g id="axes_2">
   <g id="patch_5">
    <path d="M 56.86125 186.608824 
L 503.26125 186.608824 
L 503.26125 105.079412 
L 56.86125 105.079412 
L 56.86125 186.608824 
z
" style="fill: none"/>
   </g>
   <g id="PathCollection_2">
    <g clip-path="url(#p532bb67304)">
     <use xlink:href="#me4e8b36732" x="85.606705" y="142.31126" style="fill: #0173b2; stroke: #ffffff; stroke-width: 0.149666"/>
     <use xlink:href="#me4e8b36732" x="94.06125" y="108.785294" style="fill: #0173b2; stroke: #ffffff; stroke-width: 0.149666"/>
     <use xlink:href="#me4e8b36732" x="102.515795" y="146.951158" style="fill: #0173b2; stroke: #ffffff; stroke-width: 0.149666"/>
     <use xlink:href="#me4e8b36732" x="110.970341" y="161.824798" style="fill: #0173b2; stroke: #ffffff; stroke-width: 0.149666"/>
     <use xlink:href="#me4e8b36732" x="119.424886" y="172.450923" style="fill: #0173b2; stroke: #ffffff; stroke-width: 0.149666"/>
     <use xlink:href="#me4e8b36732" x="127.879432" y="151.782931" style="fill: #0173b2; stroke: #ffffff; stroke-width: 0.149666"/>
     <use xlink:href="#me4e8b36732" x="136.333977" y="136.219981" style="fill: #0173b2; stroke: #ffffff; stroke-width: 0.149666"/>
     <use xlink:href="#me4e8b36732" x="144.788523" y="144.124057" style="fill: #0173b2; stroke: #ffffff; stroke-width: 0.149666"/>
     <use xlink:href="#me4e8b36732" x="153.243068" y="140.692271" style="fill: #0173b2; stroke: #ffffff; stroke-width: 0.149666"/>
     <use xlink:href="#me4e8b36732" x="161.697614" y="141.590744" style="fill: #0173b2; stroke: #ffffff; stroke-width: 0.149666"/>
     <use xlink:href="#me4e8b36732" x="170.152159" y="157.273826" style="fill: #0173b2; stroke: #ffffff; stroke-width: 0.149666"/>
     <use xlink:href="#me4e8b36732" x="178.606705" y="131.830886" style="fill: #0173b2; stroke: #ffffff; stroke-width: 0.149666"/>
     <use xlink:href="#me4e8b36732" x="187.06125" y="133.179633" style="fill: #0173b2; stroke: #ffffff; stroke-width: 0.149666"/>
     <use xlink:href="#me4e8b36732" x="195.515795" y="133.160989" style="fill: #0173b2; stroke: #ffffff; stroke-width: 0.149666"/>
     <use xlink:href="#me4e8b36732" x="203.970341" y="151.804459" style="fill: #0173b2; stroke: #ffffff; stroke-width: 0.149666"/>
     <use xlink:href="#me4e8b36732" x="212.424886" y="117.625211" style="fill: #0173b2; stroke: #ffffff; stroke-width: 0.149666"/>
     <use xlink:href="#me4e8b36732" x="220.879432" y="124.69664" style="fill: #0173b2; stroke: #ffffff; stroke-width: 0.149666"/>
     <use xlink:href="#me4e8b36732" x="229.333977" y="141.007853" style="fill: #0173b2; stroke: #ffffff; stroke-width: 0.149666"/>
     <use xlink:href="#me4e8b36732" x="237.788523" y="146.394963" style="fill: #0173b2; stroke: #ffffff; stroke-width: 0.149666"/>
     <use xlink:href="#me4e8b36732" x="246.243068" y="150.178129" style="fill: #0173b2; stroke: #ffffff; stroke-width: 0.149666"/>
     <use xlink:href="#me4e8b36732" x="254.697614" y="153.329079" style="fill: #0173b2; stroke: #ffffff; stroke-width: 0.149666"/>
     <use xlink:href="#me4e8b36732" x="263.152159" y="132.737576" style="fill: #0173b2; stroke: #ffffff; stroke-width: 0.149666"/>
     <use xlink:href="#me4e8b36732" x="271.606705" y="149.272298" style="fill: #0173b2; stroke: #ffffff; stroke-width: 0.149666"/>
     <use xlink:href="#me4e8b36732" x="280.06125" y="139.898594" style="fill: #0173b2; stroke: #ffffff; stroke-width: 0.149666"/>
     <use xlink:href="#me4e8b36732" x="288.515795" y="146.549727" style="fill: #0173b2; stroke: #ffffff; stroke-width: 0.149666"/>
     <use xlink:href="#me4e8b36732" x="296.970341" y="139.826018" style="fill: #0173b2; stroke: #ffffff; stroke-width: 0.149666"/>
     <use xlink:href="#me4e8b36732" x="305.424886" y="141.68864" style="fill: #0173b2; stroke: #ffffff; stroke-width: 0.149666"/>
     <use xlink:href="#me4e8b36732" x="313.879432" y="135.947067" style="fill: #0173b2; stroke: #ffffff; stroke-width: 0.149666"/>
     <use xlink:href="#me4e8b36732" x="322.333977" y="143.771813" style="fill: #0173b2; stroke: #ffffff; stroke-width: 0.149666"/>
     <use xlink:href="#me4e8b36732" x="330.788523" y="138.805994" style="fill: #0173b2; stroke: #ffffff; stroke-width: 0.149666"/>
     <use xlink:href="#me4e8b36732" x="347.697614" y="151.978342" style="fill: #0173b2; stroke: #ffffff; stroke-width: 0.149666"/>
     <use xlink:href="#me4e8b36732" x="339.243068" y="143.503081" style="fill: #0173b2; stroke: #ffffff; stroke-width: 0.149666"/>
     <use xlink:href="#me4e8b36732" x="356.152159" y="135.089983" style="fill: #0173b2; stroke: #ffffff; stroke-width: 0.149666"/>
     <use xlink:href="#me4e8b36732" x="364.606705" y="149.678581" style="fill: #0173b2; stroke: #ffffff; stroke-width: 0.149666"/>
     <use xlink:href="#me4e8b36732" x="373.06125" y="136.476981" style="fill: #0173b2; stroke: #ffffff; stroke-width: 0.149666"/>
     <use xlink:href="#me4e8b36732" x="381.515795" y="145.659567" style="fill: #0173b2; stroke: #ffffff; stroke-width: 0.149666"/>
     <use xlink:href="#me4e8b36732" x="389.970341" y="143.995151" style="fill: #0173b2; stroke: #ffffff; stroke-width: 0.149666"/>
     <use xlink:href="#me4e8b36732" x="398.424886" y="153.290975" style="fill: #0173b2; stroke: #ffffff; stroke-width: 0.149666"/>
     <use xlink:href="#me4e8b36732" x="406.879432" y="150.093068" style="fill: #0173b2; stroke: #ffffff; stroke-width: 0.149666"/>
     <use xlink:href="#me4e8b36732" x="423.788523" y="154.103184" style="fill: #0173b2; stroke: #ffffff; stroke-width: 0.149666"/>
     <use xlink:href="#me4e8b36732" x="415.333977" y="141.294289" style="fill: #0173b2; stroke: #ffffff; stroke-width: 0.149666"/>
     <use xlink:href="#me4e8b36732" x="432.243068" y="144.185236" style="fill: #0173b2; stroke: #ffffff; stroke-width: 0.149666"/>
     <use xlink:href="#me4e8b36732" x="440.697614" y="136.827231" style="fill: #0173b2; stroke: #ffffff; stroke-width: 0.149666"/>
     <use xlink:href="#me4e8b36732" x="449.152159" y="150.120494" style="fill: #0173b2; stroke: #ffffff; stroke-width: 0.149666"/>
     <use xlink:href="#me4e8b36732" x="457.606705" y="134.309601" style="fill: #0173b2; stroke: #ffffff; stroke-width: 0.149666"/>
     <use xlink:href="#me4e8b36732" x="466.06125" y="142.793071" style="fill: #0173b2; stroke: #ffffff; stroke-width: 0.149666"/>
     <use xlink:href="#me4e8b36732" x="474.515795" y="149.894276" style="fill: #0173b2; stroke: #ffffff; stroke-width: 0.149666"/>
     <use xlink:href="#me4e8b36732" x="482.970341" y="142.62265" style="fill: #0173b2; stroke: #ffffff; stroke-width: 0.149666"/>
    </g>
   </g>
   <g id="matplotlib.axis_3">
    <g id="xtick_7">
     <g id="line2d_10">
      <g>
       <use xlink:href="#mf91f9554c1" x="60.243068" y="186.608824" style="stroke: #000000; stroke-width: 0.8"/>
      </g>
     </g>
    </g>
    <g id="xtick_8">
     <g id="line2d_11">
      <g>
       <use xlink:href="#mf91f9554c1" x="144.788523" y="186.608824" style="stroke: #000000; stroke-width: 0.8"/>
      </g>
     </g>
    </g>
    <g id="xtick_9">
     <g id="line2d_12">
      <g>
       <use xlink:href="#mf91f9554c1" x="229.333977" y="186.608824" style="stroke: #000000; stroke-width: 0.8"/>
      </g>
     </g>
    </g>
    <g id="xtick_10">
     <g id="line2d_13">
      <g>
       <use xlink:href="#mf91f9554c1" x="313.879432" y="186.608824" style="stroke: #000000; stroke-width: 0.8"/>
      </g>
     </g>
    </g>
    <g id="xtick_11">
     <g id="line2d_14">
      <g>
       <use xlink:href="#mf91f9554c1" x="398.424886" y="186.608824" style="stroke: #000000; stroke-width: 0.8"/>
      </g>
     </g>
    </g>
    <g id="xtick_12">
     <g id="line2d_15">
      <g>
       <use xlink:href="#mf91f9554c1" x="482.970341" y="186.608824" style="stroke: #000000; stroke-width: 0.8"/>
      </g>
     </g>
    </g>
   </g>
   <g id="matplotlib.axis_4">
    <g id="ytick_4">
     <g id="line2d_16">
      <g>
       <use xlink:href="#mf258e5bd87" x="56.86125" y="176.35301" style="stroke: #000000; stroke-width: 0.8"/>
      </g>
     </g>
     <g id="text_5">
      <!-- 0.8 -->
      <g transform="translate(35.99875 180.10301)scale(0.1 -0.1)">
       <use xlink:href="#Roboto-Regular-30"/>
       <use xlink:href="#Roboto-Regular-2e" x="56.152344"/>
       <use xlink:href="#Roboto-Regular-38" x="82.470703"/>
      </g>
     </g>
    </g>
    <g id="ytick_5">
     <g id="line2d_17">
      <g>
       <use xlink:href="#mf258e5bd87" x="56.86125" y="142.569152" style="stroke: #000000; stroke-width: 0.8"/>
      </g>
     </g>
     <g id="text_6">
      <!-- 0.9 -->
      <g transform="translate(35.99875 146.319152)scale(0.1 -0.1)">
       <use xlink:href="#Roboto-Regular-30"/>
       <use xlink:href="#Roboto-Regular-2e" x="56.152344"/>
       <use xlink:href="#Roboto-Regular-39" x="82.470703"/>
      </g>
     </g>
    </g>
    <g id="ytick_6">
     <g id="line2d_18">
      <g>
       <use xlink:href="#mf258e5bd87" x="56.86125" y="108.785294" style="stroke: #000000; stroke-width: 0.8"/>
      </g>
     </g>
     <g id="text_7">
      <!-- 1.0 -->
      <g transform="translate(35.99875 112.535294)scale(0.1 -0.1)">
       <use xlink:href="#Roboto-Regular-31"/>
       <use xlink:href="#Roboto-Regular-2e" x="56.152344"/>
       <use xlink:href="#Roboto-Regular-30" x="82.470703"/>
      </g>
     </g>
    </g>
    <g id="text_8">
     <!-- R10/DNA -->
     <g transform="translate(16.2 170.877243)rotate(-90)scale(0.12 -0.12)">
      <use xlink:href="#Roboto-Regular-52"/>
      <use xlink:href="#Roboto-Regular-31" x="61.572266"/>
      <use xlink:href="#Roboto-Regular-30" x="117.724609"/>
      <use xlink:href="#Roboto-Regular-2f" x="173.876953"/>
      <use xlink:href="#Roboto-Regular-44" x="215.087891"/>
      <use xlink:href="#Roboto-Regular-4e" x="280.664062"/>
      <use xlink:href="#Roboto-Regular-41" x="351.953125"/>
     </g>
     <!-- Identity -->
     <g transform="translate(29.4375 165.56443)rotate(-90)scale(0.12 -0.12)">
      <use xlink:href="#Roboto-Regular-49"/>
      <use xlink:href="#Roboto-Regular-64" x="27.197266"/>
      <use xlink:href="#Roboto-Regular-65" x="83.59375"/>
      <use xlink:href="#Roboto-Regular-6e" x="136.572266"/>
      <use xlink:href="#Roboto-Regular-74" x="191.748047"/>
      <use xlink:href="#Roboto-Regular-69" x="224.414062"/>
      <use xlink:href="#Roboto-Regular-74" x="248.681641"/>
      <use xlink:href="#Roboto-Regular-79" x="281.347656"/>
     </g>
    </g>
   </g>
   <g id="patch_6">
    <path d="M 56.86125 186.608824 
L 56.86125 105.079412 
" style="fill: none; stroke: #000000; stroke-width: 0.8; stroke-linejoin: miter; stroke-linecap: square"/>
   </g>
   <g id="patch_7">
    <path d="M 56.86125 186.608824 
L 503.26125 186.608824 
" style="fill: none; stroke: #000000; stroke-width: 0.8; stroke-linejoin: miter; stroke-linecap: square"/>
   </g>
  </g>
  <g id="axes_3">
   <g id="patch_8">
    <path d="M 56.86125 284.444118 
L 503.26125 284.444118 
L 503.26125 202.914706 
L 56.86125 202.914706 
L 56.86125 284.444118 
z
" style="fill: none"/>
   </g>
   <g id="PathCollection_3">
    <g clip-path="url(#p53eabb4384)">
     <use xlink:href="#me4e8b36732" x="102.515795" y="264.095201" style="fill: #0173b2; stroke: #ffffff; stroke-width: 0.149666"/>
     <use xlink:href="#me4e8b36732" x="127.879432" y="256.220158" style="fill: #0173b2; stroke: #ffffff; stroke-width: 0.149666"/>
     <use xlink:href="#me4e8b36732" x="136.333977" y="267.0596" style="fill: #0173b2; stroke: #ffffff; stroke-width: 0.149666"/>
     <use xlink:href="#me4e8b36732" x="144.788523" y="267.028811" style="fill: #0173b2; stroke: #ffffff; stroke-width: 0.149666"/>
     <use xlink:href="#me4e8b36732" x="153.243068" y="257.138506" style="fill: #0173b2; stroke: #ffffff; stroke-width: 0.149666"/>
     <use xlink:href="#me4e8b36732" x="161.697614" y="257.756019" style="fill: #0173b2; stroke: #ffffff; stroke-width: 0.149666"/>
     <use xlink:href="#me4e8b36732" x="170.152159" y="254.081295" style="fill: #0173b2; stroke: #ffffff; stroke-width: 0.149666"/>
     <use xlink:href="#me4e8b36732" x="178.606705" y="270.791044" style="fill: #0173b2; stroke: #ffffff; stroke-width: 0.149666"/>
     <use xlink:href="#me4e8b36732" x="187.06125" y="272.362149" style="fill: #0173b2; stroke: #ffffff; stroke-width: 0.149666"/>
     <use xlink:href="#me4e8b36732" x="195.515795" y="264.061656" style="fill: #0173b2; stroke: #ffffff; stroke-width: 0.149666"/>
     <use xlink:href="#me4e8b36732" x="203.970341" y="268.420328" style="fill: #0173b2; stroke: #ffffff; stroke-width: 0.149666"/>
     <use xlink:href="#me4e8b36732" x="212.424886" y="273.088151" style="fill: #0173b2; stroke: #ffffff; stroke-width: 0.149666"/>
     <use xlink:href="#me4e8b36732" x="220.879432" y="280.738235" style="fill: #0173b2; stroke: #ffffff; stroke-width: 0.149666"/>
     <use xlink:href="#me4e8b36732" x="229.333977" y="264.573405" style="fill: #0173b2; stroke: #ffffff; stroke-width: 0.149666"/>
     <use xlink:href="#me4e8b36732" x="237.788523" y="276.175589" style="fill: #0173b2; stroke: #ffffff; stroke-width: 0.149666"/>
     <use xlink:href="#me4e8b36732" x="246.243068" y="264.491085" style="fill: #0173b2; stroke: #ffffff; stroke-width: 0.149666"/>
     <use xlink:href="#me4e8b36732" x="254.697614" y="269.542656" style="fill: #0173b2; stroke: #ffffff; stroke-width: 0.149666"/>
     <use xlink:href="#me4e8b36732" x="263.152159" y="270.342987" style="fill: #0173b2; stroke: #ffffff; stroke-width: 0.149666"/>
     <use xlink:href="#me4e8b36732" x="271.606705" y="267.537938" style="fill: #0173b2; stroke: #ffffff; stroke-width: 0.149666"/>
     <use xlink:href="#me4e8b36732" x="280.06125" y="255.430852" style="fill: #0173b2; stroke: #ffffff; stroke-width: 0.149666"/>
     <use xlink:href="#me4e8b36732" x="288.515795" y="259.769265" style="fill: #0173b2; stroke: #ffffff; stroke-width: 0.149666"/>
     <use xlink:href="#me4e8b36732" x="296.970341" y="266.4362" style="fill: #0173b2; stroke: #ffffff; stroke-width: 0.149666"/>
     <use xlink:href="#me4e8b36732" x="305.424886" y="274.600302" style="fill: #0173b2; stroke: #ffffff; stroke-width: 0.149666"/>
     <use xlink:href="#me4e8b36732" x="313.879432" y="273.009035" style="fill: #0173b2; stroke: #ffffff; stroke-width: 0.149666"/>
     <use xlink:href="#me4e8b36732" x="322.333977" y="265.976358" style="fill: #0173b2; stroke: #ffffff; stroke-width: 0.149666"/>
     <use xlink:href="#me4e8b36732" x="330.788523" y="266.325726" style="fill: #0173b2; stroke: #ffffff; stroke-width: 0.149666"/>
     <use xlink:href="#me4e8b36732" x="339.243068" y="271.856972" style="fill: #0173b2; stroke: #ffffff; stroke-width: 0.149666"/>
     <use xlink:href="#me4e8b36732" x="347.697614" y="263.828475" style="fill: #0173b2; stroke: #ffffff; stroke-width: 0.149666"/>
     <use xlink:href="#me4e8b36732" x="356.152159" y="268.528181" style="fill: #0173b2; stroke: #ffffff; stroke-width: 0.149666"/>
     <use xlink:href="#me4e8b36732" x="373.06125" y="265.654983" style="fill: #0173b2; stroke: #ffffff; stroke-width: 0.149666"/>
     <use xlink:href="#me4e8b36732" x="364.606705" y="260.166899" style="fill: #0173b2; stroke: #ffffff; stroke-width: 0.149666"/>
     <use xlink:href="#me4e8b36732" x="381.515795" y="271.060805" style="fill: #0173b2; stroke: #ffffff; stroke-width: 0.149666"/>
     <use xlink:href="#me4e8b36732" x="389.970341" y="264.486273" style="fill: #0173b2; stroke: #ffffff; stroke-width: 0.149666"/>
     <use xlink:href="#me4e8b36732" x="398.424886" y="267.035501" style="fill: #0173b2; stroke: #ffffff; stroke-width: 0.149666"/>
     <use xlink:href="#me4e8b36732" x="406.879432" y="266.901589" style="fill: #0173b2; stroke: #ffffff; stroke-width: 0.149666"/>
     <use xlink:href="#me4e8b36732" x="415.333977" y="277.439537" style="fill: #0173b2; stroke: #ffffff; stroke-width: 0.149666"/>
     <use xlink:href="#me4e8b36732" x="423.788523" y="274.55719" style="fill: #0173b2; stroke: #ffffff; stroke-width: 0.149666"/>
     <use xlink:href="#me4e8b36732" x="432.243068" y="271.227169" style="fill: #0173b2; stroke: #ffffff; stroke-width: 0.149666"/>
     <use xlink:href="#me4e8b36732" x="440.697614" y="277.124701" style="fill: #0173b2; stroke: #ffffff; stroke-width: 0.149666"/>
     <use xlink:href="#me4e8b36732" x="449.152159" y="268.884353" style="fill: #0173b2; stroke: #ffffff; stroke-width: 0.149666"/>
     <use xlink:href="#me4e8b36732" x="457.606705" y="267.487131" style="fill: #0173b2; stroke: #ffffff; stroke-width: 0.149666"/>
     <use xlink:href="#me4e8b36732" x="466.06125" y="265.683277" style="fill: #0173b2; stroke: #ffffff; stroke-width: 0.149666"/>
     <use xlink:href="#me4e8b36732" x="474.515795" y="263.584115" style="fill: #0173b2; stroke: #ffffff; stroke-width: 0.149666"/>
     <use xlink:href="#me4e8b36732" x="482.970341" y="269.129333" style="fill: #0173b2; stroke: #ffffff; stroke-width: 0.149666"/>
    </g>
   </g>
   <g id="matplotlib.axis_5">
    <g id="xtick_13">
     <g id="line2d_19">
      <g>
       <use xlink:href="#mf91f9554c1" x="60.243068" y="284.444118" style="stroke: #000000; stroke-width: 0.8"/>
      </g>
     </g>
     <g id="text_9">
      <!-- 0 -->
      <g transform="translate(57.435256 298.944118)scale(0.1 -0.1)">
       <use xlink:href="#Roboto-Regular-30"/>
      </g>
     </g>
    </g>
    <g id="xtick_14">
     <g id="line2d_20">
      <g>
       <use xlink:href="#mf91f9554c1" x="144.788523" y="284.444118" style="stroke: #000000; stroke-width: 0.8"/>
      </g>
     </g>
     <g id="text_10">
      <!-- 500 -->
      <g transform="translate(136.365085 298.944118)scale(0.1 -0.1)">
       <defs>
        <path id="Roboto-Regular-35" d="M 644 2281 
L 875 4550 
L 3206 4550 
L 3206 4016 
L 1366 4016 
L 1228 2775 
Q 1563 2972 1988 2972 
Q 2609 2972 2975 2561 
Q 3341 2150 3341 1450 
Q 3341 747 2961 342 
Q 2581 -63 1900 -63 
Q 1297 -63 915 271 
Q 534 606 481 1197 
L 1028 1197 
Q 1081 806 1306 607 
Q 1531 409 1900 409 
Q 2303 409 2533 684 
Q 2763 959 2763 1444 
Q 2763 1900 2514 2176 
Q 2266 2453 1853 2453 
Q 1475 2453 1259 2288 
L 1106 2163 
L 644 2281 
z
" transform="scale(0.015625)"/>
       </defs>
       <use xlink:href="#Roboto-Regular-35"/>
       <use xlink:href="#Roboto-Regular-30" x="56.152344"/>
       <use xlink:href="#Roboto-Regular-30" x="112.304688"/>
      </g>
     </g>
    </g>
    <g id="xtick_15">
     <g id="line2d_21">
      <g>
       <use xlink:href="#mf91f9554c1" x="229.333977" y="284.444118" style="stroke: #000000; stroke-width: 0.8"/>
      </g>
     </g>
     <g id="text_11">
      <!-- 1000 -->
      <g transform="translate(218.102727 298.944118)scale(0.1 -0.1)">
       <use xlink:href="#Roboto-Regular-31"/>
       <use xlink:href="#Roboto-Regular-30" x="56.152344"/>
       <use xlink:href="#Roboto-Regular-30" x="112.304688"/>
       <use xlink:href="#Roboto-Regular-30" x="168.457031"/>
      </g>
     </g>
    </g>
    <g id="xtick_16">
     <g id="line2d_22">
      <g>
       <use xlink:href="#mf91f9554c1" x="313.879432" y="284.444118" style="stroke: #000000; stroke-width: 0.8"/>
      </g>
     </g>
     <g id="text_12">
      <!-- 1500 -->
      <g transform="translate(302.648182 298.944118)scale(0.1 -0.1)">
       <use xlink:href="#Roboto-Regular-31"/>
       <use xlink:href="#Roboto-Regular-35" x="56.152344"/>
       <use xlink:href="#Roboto-Regular-30" x="112.304688"/>
       <use xlink:href="#Roboto-Regular-30" x="168.457031"/>
      </g>
     </g>
    </g>
    <g id="xtick_17">
     <g id="line2d_23">
      <g>
       <use xlink:href="#mf91f9554c1" x="398.424886" y="284.444118" style="stroke: #000000; stroke-width: 0.8"/>
      </g>
     </g>
     <g id="text_13">
      <!-- 2000 -->
      <g transform="translate(387.193636 298.944118)scale(0.1 -0.1)">
       <defs>
        <path id="Roboto-Regular-32" d="M 3359 0 
L 378 0 
L 378 416 
L 1953 2166 
Q 2303 2563 2436 2811 
Q 2569 3059 2569 3325 
Q 2569 3681 2353 3909 
Q 2138 4138 1778 4138 
Q 1347 4138 1108 3892 
Q 869 3647 869 3209 
L 291 3209 
Q 291 3838 695 4225 
Q 1100 4613 1778 4613 
Q 2413 4613 2781 4280 
Q 3150 3947 3150 3394 
Q 3150 2722 2294 1794 
L 1075 472 
L 3359 472 
L 3359 0 
z
" transform="scale(0.015625)"/>
       </defs>
       <use xlink:href="#Roboto-Regular-32"/>
       <use xlink:href="#Roboto-Regular-30" x="56.152344"/>
       <use xlink:href="#Roboto-Regular-30" x="112.304688"/>
       <use xlink:href="#Roboto-Regular-30" x="168.457031"/>
      </g>
     </g>
    </g>
    <g id="xtick_18">
     <g id="line2d_24">
      <g>
       <use xlink:href="#mf91f9554c1" x="482.970341" y="284.444118" style="stroke: #000000; stroke-width: 0.8"/>
      </g>
     </g>
     <g id="text_14">
      <!-- 2500 -->
      <g transform="translate(471.739091 298.944118)scale(0.1 -0.1)">
       <use xlink:href="#Roboto-Regular-32"/>
       <use xlink:href="#Roboto-Regular-35" x="56.152344"/>
       <use xlink:href="#Roboto-Regular-30" x="112.304688"/>
       <use xlink:href="#Roboto-Regular-30" x="168.457031"/>
      </g>
     </g>
    </g>
    <g id="text_15">
     <!-- Input read length -->
     <g transform="translate(235.080937 313.975368)scale(0.12 -0.12)">
      <defs>
       <path id="Roboto-Regular-70" d="M 3294 1653 
Q 3294 881 2941 409 
Q 2588 -63 1984 -63 
Q 1369 -63 1016 328 
L 1016 -1300 
L 438 -1300 
L 438 3381 
L 966 3381 
L 994 3006 
Q 1347 3444 1975 3444 
Q 2584 3444 2939 2984 
Q 3294 2525 3294 1706 
L 3294 1653 
z
M 2716 1719 
Q 2716 2291 2472 2622 
Q 2228 2953 1803 2953 
Q 1278 2953 1016 2488 
L 1016 872 
Q 1275 409 1809 409 
Q 2225 409 2470 739 
Q 2716 1069 2716 1719 
z
" transform="scale(0.015625)"/>
       <path id="Roboto-Regular-75" d="M 2525 334 
Q 2188 -63 1534 -63 
Q 994 -63 711 251 
Q 428 566 425 1181 
L 425 3381 
L 1003 3381 
L 1003 1197 
Q 1003 428 1628 428 
Q 2291 428 2509 922 
L 2509 3381 
L 3088 3381 
L 3088 0 
L 2538 0 
L 2525 334 
z
" transform="scale(0.015625)"/>
       <path id="Roboto-Regular-20" transform="scale(0.015625)"/>
       <path id="Roboto-Regular-72" d="M 2072 2863 
Q 1941 2884 1788 2884 
Q 1219 2884 1016 2400 
L 1016 0 
L 438 0 
L 438 3381 
L 1000 3381 
L 1009 2991 
Q 1294 3444 1816 3444 
Q 1984 3444 2072 3400 
L 2072 2863 
z
" transform="scale(0.015625)"/>
       <path id="Roboto-Regular-61" d="M 2525 0 
Q 2475 100 2444 356 
Q 2041 -63 1481 -63 
Q 981 -63 661 220 
Q 341 503 341 938 
Q 341 1466 742 1758 
Q 1144 2050 1872 2050 
L 2434 2050 
L 2434 2316 
Q 2434 2619 2253 2798 
Q 2072 2978 1719 2978 
Q 1409 2978 1200 2822 
Q 991 2666 991 2444 
L 409 2444 
Q 409 2697 589 2933 
Q 769 3169 1076 3306 
Q 1384 3444 1753 3444 
Q 2338 3444 2669 3151 
Q 3000 2859 3013 2347 
L 3013 791 
Q 3013 325 3131 50 
L 3131 0 
L 2525 0 
z
M 1566 441 
Q 1838 441 2081 581 
Q 2325 722 2434 947 
L 2434 1641 
L 1981 1641 
Q 919 1641 919 1019 
Q 919 747 1100 594 
Q 1281 441 1566 441 
z
" transform="scale(0.015625)"/>
       <path id="Roboto-Regular-6c" d="M 1066 0 
L 488 0 
L 488 4800 
L 1066 4800 
L 1066 0 
z
" transform="scale(0.015625)"/>
       <path id="Roboto-Regular-67" d="M 300 1719 
Q 300 2509 665 2976 
Q 1031 3444 1634 3444 
Q 2253 3444 2600 3006 
L 2628 3381 
L 3156 3381 
L 3156 81 
Q 3156 -575 2767 -953 
Q 2378 -1331 1722 -1331 
Q 1356 -1331 1006 -1175 
Q 656 -1019 472 -747 
L 772 -400 
Q 1144 -859 1681 -859 
Q 2103 -859 2339 -621 
Q 2575 -384 2575 47 
L 2575 338 
Q 2228 -63 1628 -63 
Q 1034 -63 667 415 
Q 300 894 300 1719 
z
M 881 1653 
Q 881 1081 1115 754 
Q 1350 428 1772 428 
Q 2319 428 2575 925 
L 2575 2469 
Q 2309 2953 1778 2953 
Q 1356 2953 1118 2625 
Q 881 2297 881 1653 
z
" transform="scale(0.015625)"/>
       <path id="Roboto-Regular-68" d="M 1016 2972 
Q 1400 3444 2016 3444 
Q 3088 3444 3097 2234 
L 3097 0 
L 2519 0 
L 2519 2238 
Q 2516 2603 2352 2778 
Q 2188 2953 1841 2953 
Q 1559 2953 1346 2803 
Q 1134 2653 1016 2409 
L 1016 0 
L 438 0 
L 438 4800 
L 1016 4800 
L 1016 2972 
z
" transform="scale(0.015625)"/>
      </defs>
      <use xlink:href="#Roboto-Regular-49"/>
      <use xlink:href="#Roboto-Regular-6e" x="27.197266"/>
      <use xlink:href="#Roboto-Regular-70" x="82.373047"/>
      <use xlink:href="#Roboto-Regular-75" x="138.476562"/>
      <use xlink:href="#Roboto-Regular-74" x="193.603516"/>
      <use xlink:href="#Roboto-Regular-20" x="226.269531"/>
      <use xlink:href="#Roboto-Regular-72" x="251.025391"/>
      <use xlink:href="#Roboto-Regular-65" x="284.863281"/>
      <use xlink:href="#Roboto-Regular-61" x="337.841797"/>
      <use xlink:href="#Roboto-Regular-64" x="392.236328"/>
      <use xlink:href="#Roboto-Regular-20" x="448.632812"/>
      <use xlink:href="#Roboto-Regular-6c" x="473.388672"/>
      <use xlink:href="#Roboto-Regular-65" x="497.65625"/>
      <use xlink:href="#Roboto-Regular-6e" x="550.634766"/>
      <use xlink:href="#Roboto-Regular-67" x="605.810547"/>
      <use xlink:href="#Roboto-Regular-74" x="661.914062"/>
      <use xlink:href="#Roboto-Regular-68" x="694.580078"/>
     </g>
    </g>
   </g>
   <g id="matplotlib.axis_6">
    <g id="ytick_7">
     <g id="line2d_25">
      <g>
       <use xlink:href="#mf258e5bd87" x="56.86125" y="274.188304" style="stroke: #000000; stroke-width: 0.8"/>
      </g>
     </g>
     <g id="text_16">
      <!-- 0.8 -->
      <g transform="translate(35.99875 277.938304)scale(0.1 -0.1)">
       <use xlink:href="#Roboto-Regular-30"/>
       <use xlink:href="#Roboto-Regular-2e" x="56.152344"/>
       <use xlink:href="#Roboto-Regular-38" x="82.470703"/>
      </g>
     </g>
    </g>
    <g id="ytick_8">
     <g id="line2d_26">
      <g>
       <use xlink:href="#mf258e5bd87" x="56.86125" y="240.404446" style="stroke: #000000; stroke-width: 0.8"/>
      </g>
     </g>
     <g id="text_17">
      <!-- 0.9 -->
      <g transform="translate(35.99875 244.154446)scale(0.1 -0.1)">
       <use xlink:href="#Roboto-Regular-30"/>
       <use xlink:href="#Roboto-Regular-2e" x="56.152344"/>
       <use xlink:href="#Roboto-Regular-39" x="82.470703"/>
      </g>
     </g>
    </g>
    <g id="ytick_9">
     <g id="line2d_27">
      <g>
       <use xlink:href="#mf258e5bd87" x="56.86125" y="206.620588" style="stroke: #000000; stroke-width: 0.8"/>
      </g>
     </g>
     <g id="text_18">
      <!-- 1.0 -->
      <g transform="translate(35.99875 210.370588)scale(0.1 -0.1)">
       <use xlink:href="#Roboto-Regular-31"/>
       <use xlink:href="#Roboto-Regular-2e" x="56.152344"/>
       <use xlink:href="#Roboto-Regular-30" x="82.470703"/>
      </g>
     </g>
    </g>
    <g id="text_19">
     <!-- RAN02 -->
     <g transform="translate(16.2 262.304724)rotate(-90)scale(0.12 -0.12)">
      <use xlink:href="#Roboto-Regular-52"/>
      <use xlink:href="#Roboto-Regular-41" x="61.572266"/>
      <use xlink:href="#Roboto-Regular-4e" x="126.806641"/>
      <use xlink:href="#Roboto-Regular-30" x="198.095703"/>
      <use xlink:href="#Roboto-Regular-32" x="254.248047"/>
     </g>
     <!-- Identity -->
     <g transform="translate(29.4375 263.399724)rotate(-90)scale(0.12 -0.12)">
      <use xlink:href="#Roboto-Regular-49"/>
      <use xlink:href="#Roboto-Regular-64" x="27.197266"/>
      <use xlink:href="#Roboto-Regular-65" x="83.59375"/>
      <use xlink:href="#Roboto-Regular-6e" x="136.572266"/>
      <use xlink:href="#Roboto-Regular-74" x="191.748047"/>
      <use xlink:href="#Roboto-Regular-69" x="224.414062"/>
      <use xlink:href="#Roboto-Regular-74" x="248.681641"/>
      <use xlink:href="#Roboto-Regular-79" x="281.347656"/>
     </g>
    </g>
   </g>
   <g id="patch_9">
    <path d="M 56.86125 284.444118 
L 56.86125 202.914706 
" style="fill: none; stroke: #000000; stroke-width: 0.8; stroke-linejoin: miter; stroke-linecap: square"/>
   </g>
   <g id="patch_10">
    <path d="M 56.86125 284.444118 
L 503.26125 284.444118 
" style="fill: none; stroke: #000000; stroke-width: 0.8; stroke-linejoin: miter; stroke-linecap: square"/>
   </g>
  </g>
 </g>
 <defs>
  <clipPath id="pf3c0f79e7e">
   <rect x="56.86125" y="7.244118" width="446.4" height="81.529412"/>
  </clipPath>
  <clipPath id="p532bb67304">
   <rect x="56.86125" y="105.079412" width="446.4" height="81.529412"/>
  </clipPath>
  <clipPath id="p53eabb4384">
   <rect x="56.86125" y="202.914706" width="446.4" height="81.529412"/>
  </clipPath>
 </defs>
</svg>
